<svg xmlns="http://www.w3.org/2000/svg" fill="none" viewBox="0 0 1920 1152"><g clip-path="url(#a)"><rect width="1920" height="1152" fill="url(#b)" rx="30"/><path stroke="#F0F9FF" stroke-width="4" d="M0 0h192v192H0zM192 0h192v192H192zM384 0h192v192H384zM576 0h192v192H576zM768 0h192v192H768zM960 0h192v192H960zM1152 0h192v192h-192zM1344 0h192v192h-192zM1536 0h192v192h-192zM1728 0h192v192h-192zM0 192h192v192H0zM192 192h192v192H192zM384 192h192v192H384zM576 192h192v192H576zM768 192h192v192H768zM960 192h192v192H960zM1152 192h192v192h-192zM1344 192h192v192h-192zM1536 192h192v192h-192zM1728 192h192v192h-192zM0 384h192v192H0zM192 384h192v192H192zM384 384h192v192H384zM576 384h192v192H576zM768 384h192v192H768zM960 384h192v192H960zM1152 384h192v192h-192zM1344 384h192v192h-192zM1536 384h192v192h-192zM1728 384h192v192h-192zM0 576h192v192H0zM192 576h192v192H192zM384 576h192v192H384zM576 576h192v192H576zM768 576h192v192H768zM960 576h192v192H960zM1152 576h192v192h-192zM1344 576h192v192h-192zM1536 576h192v192h-192zM1728 576h192v192h-192zM0 768h192v192H0zM192 768h192v192H192zM384 768h192v192H384zM576 768h192v192H576zM768 768h192v192H768zM960 768h192v192H960zM1152 768h192v192h-192zM1344 768h192v192h-192zM1536 768h192v192h-192zM1728 768h192v192h-192zM0 960h192v192H0zM192 960h192v192H192zM384 960h192v192H384zM576 960h192v192H576zM768 960h192v192H768zM960 960h192v192H960zM1152 960h192v192h-192zM1344 960h192v192h-192zM1536 960h192v192h-192zM1728 960h192v192h-192z"/><circle cx="384" cy="384" r="60" fill="url(#c)" stroke="#F8AF18" stroke-width="3"/><path fill="#F8AF18" fill-rule="evenodd" d="M384 240a6 6 0 0 1 6 6v36a6 6 0 1 1-12 0v-36a6 6 0 0 1 6-6Zm-101.823 42.177a5.998 5.998 0 0 1 8.485 0l25.456 25.455a6.001 6.001 0 0 1-8.486 8.486l-25.455-25.456a5.998 5.998 0 0 1 0-8.485Zm203.646 0a5.998 5.998 0 0 1 0 8.485l-25.455 25.456a6.001 6.001 0 0 1-8.486-8.486l25.456-25.455a5.998 5.998 0 0 1 8.485 0ZM240 384a6 6 0 0 1 6-6h36a6 6 0 1 1 0 12h-36a6 6 0 0 1-6-6Zm240 0a6 6 0 0 1 6-6h36a6 6 0 1 1 0 12h-36a6 6 0 0 1-6-6Zm-163.882 67.882a6.001 6.001 0 0 1 0 8.486l-25.456 25.455a6 6 0 0 1-8.485-8.485l25.455-25.456a6.001 6.001 0 0 1 8.486 0Zm135.764 0a6.001 6.001 0 0 1 8.486 0l25.455 25.456a6 6 0 0 1-8.485 8.485l-25.456-25.455a6.001 6.001 0 0 1 0-8.486ZM384 480a6 6 0 0 1 6 6v36a6 6 0 1 1-12 0v-36a6 6 0 0 1 6-6Z" clip-rule="evenodd"/><path fill="url(#d)" stroke="#72B9D5" stroke-linecap="round" stroke-linejoin="round" stroke-width="3" d="M385.5 863.695c0-48.089 36.319-87.811 83.404-93.948-15.059 63.353 39.898 125.301 105.073 119.801-11.419 39.765-48.383 68.952-92.37 68.952-53.096 0-96.107-42.467-96.107-94.805Z"/><g clip-path="url(#e)"><circle cx="1728" cy="192" r="77" fill="url(#f)" stroke="#1E293B" stroke-width="6"/><path fill="#64748B" d="M1730 133.232v-6.624h2.94V138h-2.99l-3.95-6.592V138h-2.96v-11.392h2.96l4 6.624ZM1786.59 193.392v2.08h6.17V198h-9.17v-11.392h9.01v2.48h-6.01v1.872h5.28v2.432h-5.28ZM1728.08 258.368c-1.53 0-2.73-.347-3.6-1.04-.88-.704-1.35-1.701-1.41-2.992h2.96c.07 1.088.78 1.632 2.11 1.632 1.16 0 1.74-.379 1.74-1.136 0-.299-.1-.528-.32-.688-.2-.171-.54-.32-1.04-.448l-2.24-.528c-1.96-.459-2.94-1.541-2.94-3.248 0-1.045.38-1.904 1.14-2.576.75-.672 1.88-1.008 3.39-1.008 1.44 0 2.56.32 3.37.96.82.629 1.25 1.525 1.32 2.688h-2.9c-.13-.896-.73-1.344-1.81-1.344-.47 0-.84.096-1.12.288-.26.181-.4.427-.4.736 0 .48.37.811 1.09.992l2.34.544c2.11.501 3.16 1.643 3.16 3.424 0 1.173-.43 2.091-1.29 2.752-.87.661-2.05.992-3.55.992ZM1671.46 191.616l1.26-5.008h2.99L1672.4 198h-2.88l-1.52-7.28-1.46 7.28h-2.94l-3.31-11.392h3.02l1.27 5.008.52 2.704.47-2.704 1.07-5.008h2.75l1.11 5.008.44 2.656.52-2.656Z"/></g><g clip-path="url(#g)" filter="url(#h)"><path fill="#fff" d="m1735.61 203.195-35.99 20.39c-1.92 1.088-4.29-1.28-3.2-3.202l20.38-35.995a2.006 2.006 0 0 1 3.16-.429l16.08 16.082c.94.934.72 2.503-.43 3.154Z"/><path fill="#EF4444" d="m1742.02 196.784 20.39-35.996c1.09-1.921-1.28-4.289-3.2-3.201l-35.99 20.39a1.997 1.997 0 0 0-.43 3.154l16.08 16.081c.93.935 2.5.722 3.15-.428Z"/><circle cx="1729.41" cy="190.586" r="7" fill="#475569" stroke="#293649" stroke-width="2" transform="rotate(45 1729.41 190.586)"/></g><path fill="url(#i)" stroke="#94A3B8" stroke-miterlimit="10" stroke-width="3" d="m1742.13 645.331-.51 1.961 2.03-.084c9.84-.413 18.85 7.203 18.85 17.125 0 9.598-8.49 17.166-18.03 17.167-17.68-.015-35.36-.01-53.03-.005-8.84.002-17.68.005-26.51.005-9.63.002-18.4-7.142-19.35-16.768-.94-9.594 6.27-18.184 15.71-19.895l1.48-.267-.27-1.474c-1.18-6.587 1.94-13.313 7.56-16.977 5.77-3.766 13.47-3.962 19.45-.515l1.23.714.78-1.201c7.21-11.199 22.12-15.484 34.43-10.543 12.13 4.869 19.49 18.023 16.18 30.757Z"/><path fill="url(#j)" stroke="#E6EFFC" stroke-miterlimit="10" stroke-width="3" d="m1709.71 667.947-.49 1.949 2.01-.087c21.03-.918 39.27 16.208 39.27 37.302 0 20.419-17.18 37.389-37.57 37.389H1553.86c-20.48.005-38.25-15.976-40.18-36.393-1.93-20.41 12.53-39.416 32.65-43.215l1.45-.274-.25-1.454c-2.45-14.225 3.85-28.936 15.78-37.043 11.97-8.128 28.03-8.57 40.43-1.117l1.27.763.78-1.26c14.58-23.574 45.1-33.261 70.66-22.577 25.52 10.67 39.97 39.15 33.26 66.017Z"/><path fill="#86C3DB" d="m1600.73 750.098-3.61-2.065a8.58 8.58 0 0 0-.01-4.061l3.62-2.069c.29-.162.54-.379.75-.64.2-.261.35-.559.43-.878.09-.319.11-.652.07-.979a2.544 2.544 0 0 0-.32-.928 2.538 2.538 0 0 0-3.46-.918l-3.62 2.069c-1-.953-2.22-1.65-3.55-2.03v-4.138a2.51 2.51 0 0 0-.77-1.745 2.516 2.516 0 0 0-1.76-.716c-.66 0-1.29.257-1.76.716a2.51 2.51 0 0 0-.77 1.745v4.138a8.844 8.844 0 0 0-3.56 2.023l-3.61-2.066a2.547 2.547 0 0 0-3.46.918c-.17.285-.28.601-.32.928-.04.328-.02.661.07.979.08.319.23.618.43.878.21.261.46.479.75.641l3.61 2.065a8.575 8.575 0 0 0 .01 4.06l-3.62 2.069c-.29.162-.54.38-.75.64-.2.261-.35.559-.43.878-.09.319-.11.652-.07.98a2.531 2.531 0 0 0 1.86 2.097c.65.172 1.34.082 1.92-.251l3.62-2.069a8.49 8.49 0 0 0 3.55 2.025v4.145c.02.66.3 1.286.77 1.745.47.459 1.1.716 1.76.716.66 0 1.29-.257 1.76-.716a2.51 2.51 0 0 0 .77-1.745v-4.146a8.826 8.826 0 0 0 3.55-2.021l3.62 2.069a2.547 2.547 0 0 0 3.46-.917c.17-.286.28-.601.32-.929.04-.327.02-.66-.07-.979a2.415 2.415 0 0 0-.43-.878 2.57 2.57 0 0 0-.75-.64Zm-14.13-.84c-.43-.243-.81-.57-1.11-.961a3.656 3.656 0 0 1-.66-1.317 3.832 3.832 0 0 1-.1-1.469c.07-.492.23-.965.48-1.394a3.822 3.822 0 0 1 2.31-1.752 3.809 3.809 0 0 1 3.99 1.334 3.801 3.801 0 0 1 .75 2.787c-.06.491-.22.965-.47 1.393a3.868 3.868 0 0 1-2.32 1.753c-.97.259-2 .125-2.87-.372v-.002ZM1645.73 810.098l-3.61-2.065a8.58 8.58 0 0 0-.01-4.061l3.62-2.069c.29-.162.54-.379.75-.64.2-.261.35-.559.43-.878.09-.319.11-.652.07-.979a2.544 2.544 0 0 0-.32-.928 2.538 2.538 0 0 0-3.46-.918l-3.62 2.069c-1-.953-2.22-1.65-3.55-2.03v-4.138a2.51 2.51 0 0 0-.77-1.745 2.516 2.516 0 0 0-1.76-.716c-.66 0-1.29.257-1.76.716a2.51 2.51 0 0 0-.77 1.745v4.138a8.844 8.844 0 0 0-3.56 2.023l-3.61-2.066a2.547 2.547 0 0 0-3.46.918c-.17.285-.28.601-.32.928-.04.328-.02.661.07.979.08.319.23.618.43.878.21.261.46.479.75.641l3.61 2.065a8.575 8.575 0 0 0 .01 4.06l-3.62 2.069c-.29.162-.54.38-.75.64-.2.261-.35.559-.43.878-.09.319-.11.652-.07.98a2.531 2.531 0 0 0 1.86 2.097c.65.172 1.34.082 1.92-.251l3.62-2.069a8.49 8.49 0 0 0 3.55 2.025v4.145c.02.66.3 1.286.77 1.745.47.459 1.1.716 1.76.716.66 0 1.29-.257 1.76-.716a2.51 2.51 0 0 0 .77-1.745v-4.146a8.826 8.826 0 0 0 3.55-2.021l3.62 2.069a2.547 2.547 0 0 0 3.46-.917c.17-.286.28-.601.32-.929.04-.327.02-.66-.07-.979a2.415 2.415 0 0 0-.43-.878 2.57 2.57 0 0 0-.75-.64Zm-14.13-.84c-.43-.243-.81-.57-1.11-.961a3.656 3.656 0 0 1-.66-1.317 3.832 3.832 0 0 1-.1-1.469c.07-.492.23-.965.48-1.394a3.822 3.822 0 0 1 2.31-1.752 3.809 3.809 0 0 1 3.99 1.334 3.801 3.801 0 0 1 .75 2.787c-.06.491-.22.965-.47 1.393a3.868 3.868 0 0 1-2.32 1.753c-.97.259-2 .125-2.87-.372v-.002ZM1690.73 780.098l-3.61-2.065a8.58 8.58 0 0 0-.01-4.061l3.62-2.069c.29-.162.54-.379.75-.64.2-.261.35-.559.43-.878.09-.319.11-.652.07-.979a2.544 2.544 0 0 0-.32-.928 2.538 2.538 0 0 0-3.46-.918l-3.62 2.069c-1-.953-2.22-1.65-3.55-2.03v-4.138a2.51 2.51 0 0 0-.77-1.745 2.516 2.516 0 0 0-1.76-.716c-.66 0-1.29.257-1.76.716a2.51 2.51 0 0 0-.77 1.745v4.138a8.844 8.844 0 0 0-3.56 2.023l-3.61-2.066a2.547 2.547 0 0 0-3.46.918c-.17.285-.28.601-.32.928-.04.328-.02.661.07.979.08.319.23.618.43.878.21.261.46.479.75.641l3.61 2.065a8.575 8.575 0 0 0 .01 4.06l-3.62 2.069c-.29.162-.54.38-.75.64-.2.261-.35.559-.43.878-.09.319-.11.652-.07.98a2.531 2.531 0 0 0 1.86 2.097c.65.172 1.34.082 1.92-.251l3.62-2.069a8.49 8.49 0 0 0 3.55 2.025v4.145c.02.66.3 1.286.77 1.745.47.459 1.1.716 1.76.716.66 0 1.29-.257 1.76-.716a2.51 2.51 0 0 0 .77-1.745v-4.146a8.826 8.826 0 0 0 3.55-2.021l3.62 2.069a2.547 2.547 0 0 0 3.46-.917c.17-.286.28-.601.32-.929.04-.327.02-.66-.07-.979a2.415 2.415 0 0 0-.43-.878 2.57 2.57 0 0 0-.75-.64Zm-14.13-.84c-.43-.243-.81-.57-1.11-.961a3.656 3.656 0 0 1-.66-1.317 3.832 3.832 0 0 1-.1-1.469c.07-.492.23-.965.48-1.394a3.822 3.822 0 0 1 2.31-1.752 3.809 3.809 0 0 1 3.99 1.334 3.801 3.801 0 0 1 .75 2.787c-.06.491-.22.965-.47 1.393a3.868 3.868 0 0 1-2.32 1.753c-.97.259-2 .125-2.87-.372v-.002Z"/><path stroke="#0A5AD4" stroke-linecap="round" stroke-width="12" d="M1596 773v9M1632 740v9M1668 797v9"/><path fill="#1E293B" d="M514.836 643V515.38h23.22l48.96 73.98h-10.98l48.78-73.98h23.22V643h-31.86v-74.34l5.04 1.44-29.34 44.1h-20.88l-29.16-44.1 5.04-1.44V643h-32.04Zm198.218 1.98c-9.84 0-18.54-1.92-26.1-5.76-7.56-3.96-13.5-9.42-17.82-16.38-4.32-6.96-6.48-14.94-6.48-23.94 0-8.88 2.1-16.74 6.3-23.58 4.2-6.96 9.9-12.42 17.1-16.38 7.32-4.08 15.54-6.12 24.66-6.12 8.88 0 16.74 1.92 23.58 5.76 6.96 3.72 12.36 8.94 16.2 15.66 3.96 6.6 5.94 14.16 5.94 22.68 0 1.8-.12 3.66-.36 5.58-.12 1.8-.48 3.9-1.08 6.3l-77.58.36V589l65.16-.54-14.04 8.82c-.12-4.92-.84-8.94-2.16-12.06-1.32-3.24-3.24-5.7-5.76-7.38-2.52-1.68-5.7-2.52-9.54-2.52-3.96 0-7.38.96-10.26 2.88s-5.1 4.62-6.66 8.1c-1.56 3.48-2.34 7.68-2.34 12.6 0 5.04.84 9.36 2.52 12.96 1.68 3.48 4.08 6.12 7.2 7.92 3.12 1.8 6.96 2.7 11.52 2.7 4.32 0 8.1-.72 11.34-2.16 3.36-1.44 6.36-3.66 9-6.66l16.38 16.38c-4.32 4.92-9.6 8.64-15.84 11.16-6.12 2.52-13.08 3.78-20.88 3.78Zm65.51-1.98V518.62h31.32V643h-31.32Zm-19.44-61.92v-26.1h70.2v26.1h-70.2Zm124.262 63.9c-9.84 0-18.54-1.92-26.1-5.76-7.56-3.96-13.5-9.42-17.82-16.38-4.32-6.96-6.48-14.94-6.48-23.94 0-8.88 2.1-16.74 6.3-23.58 4.2-6.96 9.9-12.42 17.1-16.38 7.32-4.08 15.54-6.12 24.66-6.12 8.88 0 16.74 1.92 23.58 5.76 6.96 3.72 12.36 8.94 16.2 15.66 3.96 6.6 5.94 14.16 5.94 22.68 0 1.8-.12 3.66-.36 5.58-.12 1.8-.48 3.9-1.08 6.3l-77.58.36V589l65.16-.54-14.04 8.82c-.12-4.92-.84-8.94-2.16-12.06-1.32-3.24-3.24-5.7-5.76-7.38-2.52-1.68-5.7-2.52-9.54-2.52-3.96 0-7.38.96-10.26 2.88s-5.1 4.62-6.66 8.1c-1.56 3.48-2.34 7.68-2.34 12.6 0 5.04.84 9.36 2.52 12.96 1.68 3.48 4.08 6.12 7.2 7.92 3.12 1.8 6.96 2.7 11.52 2.7 4.32 0 8.1-.72 11.34-2.16 3.36-1.44 6.36-3.66 9-6.66l16.38 16.38c-4.32 4.92-9.6 8.64-15.84 11.16-6.12 2.52-13.08 3.78-20.88 3.78Zm98.588 0c-9.48 0-17.94-1.98-25.38-5.94-7.32-4.08-13.14-9.6-17.46-16.56-4.32-7.08-6.48-15-6.48-23.76 0-8.76 2.1-16.56 6.3-23.4 4.32-6.96 10.2-12.42 17.64-16.38 7.44-4.08 15.84-6.12 25.2-6.12s17.7 2.04 25.016 6.12c7.44 3.96 13.32 9.42 17.64 16.38 4.32 6.84 6.48 14.64 6.48 23.4 0 8.76-2.16 16.68-6.48 23.76-4.2 6.96-10.02 12.48-17.46 16.56-7.316 3.96-15.656 5.94-25.016 5.94Zm-.18-27.9c3.48 0 6.48-.72 9-2.16 2.64-1.56 4.68-3.72 6.12-6.48 1.44-2.76 2.16-5.94 2.16-9.54 0-3.6-.78-6.72-2.34-9.36-1.44-2.76-3.42-4.86-5.94-6.3-2.52-1.56-5.52-2.34-9-2.34-3.36 0-6.36.78-9 2.34-2.64 1.56-4.68 3.72-6.12 6.48-1.44 2.64-2.16 5.76-2.16 9.36 0 3.48.72 6.6 2.16 9.36 1.44 2.76 3.48 4.92 6.12 6.48 2.64 1.44 5.64 2.16 9 2.16Zm105.126 27.9c-9.36 0-17.82-1.98-25.38-5.94-7.44-3.96-13.32-9.42-17.64-16.38-4.32-6.96-6.48-14.82-6.48-23.58 0-8.88 2.16-16.8 6.48-23.76 4.44-6.96 10.38-12.42 17.82-16.38 7.56-4.08 16.08-6.12 25.56-6.12 6.84 0 13.08 1.14 18.72 3.42 5.64 2.28 10.8 5.7 15.48 10.26l-19.8 19.8c-1.8-1.8-3.9-3.12-6.3-3.96-2.28-.96-4.98-1.44-8.1-1.44-3.36 0-6.42.78-9.18 2.34-2.64 1.44-4.8 3.48-6.48 6.12-1.56 2.64-2.34 5.82-2.34 9.54 0 3.6.78 6.78 2.34 9.54 1.68 2.64 3.84 4.74 6.48 6.3 2.76 1.56 5.82 2.34 9.18 2.34 3.36 0 6.24-.54 8.64-1.62 2.4-1.08 4.5-2.64 6.3-4.68l19.98 19.8c-4.92 4.8-10.26 8.4-16.02 10.8-5.64 2.4-12.06 3.6-19.26 3.6Zm87.71 0c-9.48 0-17.94-1.98-25.38-5.94-7.32-4.08-13.14-9.6-17.46-16.56-4.32-7.08-6.48-15-6.48-23.76 0-8.76 2.1-16.56 6.3-23.4 4.32-6.96 10.2-12.42 17.64-16.38 7.44-4.08 15.84-6.12 25.2-6.12s17.7 2.04 25.02 6.12c7.44 3.96 13.32 9.42 17.64 16.38 4.32 6.84 6.48 14.64 6.48 23.4 0 8.76-2.16 16.68-6.48 23.76-4.2 6.96-10.02 12.48-17.46 16.56-7.32 3.96-15.66 5.94-25.02 5.94Zm-.18-27.9c3.48 0 6.48-.72 9-2.16 2.64-1.56 4.68-3.72 6.12-6.48 1.44-2.76 2.16-5.94 2.16-9.54 0-3.6-.78-6.72-2.34-9.36-1.44-2.76-3.42-4.86-5.94-6.3-2.52-1.56-5.52-2.34-9-2.34-3.36 0-6.36.78-9 2.34-2.64 1.56-4.68 3.72-6.12 6.48-1.44 2.64-2.16 5.76-2.16 9.36 0 3.48.72 6.6 2.16 9.36 1.44 2.76 3.48 4.92 6.12 6.48 2.64 1.44 5.64 2.16 9 2.16ZM1293.08 643v-49.68c0-4.08-1.2-7.26-3.6-9.54-2.4-2.4-5.46-3.6-9.18-3.6-2.52 0-4.8.54-6.84 1.62a11.587 11.587 0 0 0-4.5 4.5c-1.08 1.92-1.62 4.26-1.62 7.02l-12.24-5.76c0-7.08 1.56-13.14 4.68-18.18 3.12-5.16 7.38-9.12 12.78-11.88 5.52-2.88 11.76-4.32 18.72-4.32 6.36 0 12 1.5 16.92 4.5 5.04 2.88 9 6.78 11.88 11.7 2.88 4.92 4.32 10.5 4.32 16.74V643h-31.32Zm-57.06 0v-88.02h31.32V643h-31.32Zm138.42 2.52c-5.4 0-10.74-.72-16.02-2.16-5.16-1.44-10.02-3.36-14.58-5.76-4.44-2.52-8.22-5.4-11.34-8.64l17.1-17.46c2.88 3 6.3 5.34 10.26 7.02 4.08 1.68 8.4 2.52 12.96 2.52 2.64 0 4.62-.36 5.94-1.08 1.44-.72 2.16-1.74 2.16-3.06 0-1.92-1.02-3.36-3.06-4.32-1.92-1.08-4.5-1.98-7.74-2.7-3.12-.84-6.42-1.8-9.9-2.88-3.48-1.2-6.84-2.76-10.08-4.68s-5.88-4.62-7.92-8.1c-1.92-3.48-2.88-7.92-2.88-13.32 0-5.64 1.5-10.56 4.5-14.76 3.12-4.32 7.44-7.68 12.96-10.08 5.52-2.52 12-3.78 19.44-3.78 7.56 0 14.76 1.32 21.6 3.96 6.84 2.52 12.36 6.36 16.56 11.52l-17.28 17.46c-2.88-3.24-6.06-5.46-9.54-6.66-3.48-1.32-6.66-1.98-9.54-1.98-2.76 0-4.74.42-5.94 1.26-1.2.72-1.8 1.74-1.8 3.06 0 1.56.96 2.82 2.88 3.78 2.04.96 4.62 1.86 7.74 2.7 3.24.72 6.54 1.68 9.9 2.88 3.48 1.2 6.78 2.88 9.9 5.04 3.24 2.04 5.82 4.8 7.74 8.28 2.04 3.48 3.06 7.98 3.06 13.5 0 8.76-3.36 15.72-10.08 20.88-6.72 5.04-15.72 7.56-27 7.56Z"/><path fill="#1D4ED8" d="m631.647 731 17.28-42h4.8l17.16 42h-7.44l-13.44-34.02h2.52L638.967 731h-7.32Zm8.52-8.1v-6h22.26v6h-22.26Zm55.569 8.1v-16.62c0-1.92-.62-3.5-1.86-4.74-1.2-1.24-2.76-1.86-4.68-1.86-1.28 0-2.42.28-3.42.84-1 .56-1.78 1.34-2.34 2.34-.56 1-.84 2.14-.84 3.42l-2.58-1.44c0-2.2.48-4.14 1.44-5.82.96-1.72 2.28-3.06 3.96-4.02 1.72-1 3.64-1.5 5.76-1.5 2.16 0 4.08.56 5.76 1.68 1.68 1.08 3 2.5 3.96 4.26.96 1.72 1.44 3.52 1.44 5.4V731h-6.6Zm-19.74 0v-28.8h6.6V731h-6.6Zm33.107 0v-28.8h6.6V731h-6.6Zm3.3-34.08c-1.12 0-2.06-.38-2.82-1.14-.72-.76-1.08-1.7-1.08-2.82 0-1.12.36-2.06 1.08-2.82.76-.76 1.7-1.14 2.82-1.14 1.16 0 2.1.38 2.82 1.14.72.76 1.08 1.7 1.08 2.82 0 1.12-.36 2.06-1.08 2.82-.72.76-1.66 1.14-2.82 1.14ZM723.105 731v-28.8h6.6V731h-6.6Zm19.14 0v-17.16c0-1.92-.6-3.4-1.8-4.44-1.2-1.08-2.68-1.62-4.44-1.62-1.2 0-2.28.24-3.24.72-.92.48-1.66 1.18-2.22 2.1-.56.88-.84 1.96-.84 3.24l-2.58-1.44c0-2.2.48-4.1 1.44-5.7.96-1.6 2.26-2.84 3.9-3.72 1.64-.92 3.48-1.38 5.52-1.38 2.04 0 3.88.44 5.52 1.32 1.64.88 2.94 2.12 3.9 3.72s1.44 3.52 1.44 5.76V731h-6.6Zm19.14 0v-17.16c0-1.92-.6-3.4-1.8-4.44-1.2-1.08-2.68-1.62-4.44-1.62-1.16 0-2.22.24-3.18.72s-1.72 1.18-2.28 2.1c-.56.88-.84 1.96-.84 3.24l-3.72-1.44c.2-2.2.84-4.1 1.92-5.7a11.2 11.2 0 0 1 4.14-3.72c1.72-.92 3.6-1.38 5.64-1.38 2.08 0 3.96.44 5.64 1.32 1.68.88 3.02 2.12 4.02 3.72 1 1.6 1.5 3.52 1.5 5.76V731h-6.6Zm25.46.6c-2.6 0-4.96-.66-7.08-1.98-2.08-1.32-3.74-3.1-4.98-5.34-1.2-2.28-1.8-4.82-1.8-7.62 0-2.84.6-5.38 1.8-7.62 1.24-2.28 2.9-4.08 4.98-5.4 2.12-1.36 4.48-2.04 7.08-2.04 2.2 0 4.14.48 5.82 1.44 1.72.92 3.08 2.2 4.08 3.84 1 1.64 1.5 3.5 1.5 5.58v8.28c0 2.08-.5 3.94-1.5 5.58-.96 1.64-2.3 2.94-4.02 3.9-1.72.92-3.68 1.38-5.88 1.38Zm1.08-6.24c2.44 0 4.4-.82 5.88-2.46 1.52-1.64 2.28-3.74 2.28-6.3 0-1.72-.34-3.24-1.02-4.56-.68-1.32-1.64-2.34-2.88-3.06-1.2-.76-2.62-1.14-4.26-1.14-1.6 0-3.02.38-4.26 1.14-1.2.72-2.16 1.74-2.88 3.06-.68 1.32-1.02 2.84-1.02 4.56 0 1.72.34 3.24 1.02 4.56.72 1.32 1.68 2.36 2.88 3.12 1.24.72 2.66 1.08 4.26 1.08Zm7.74 5.64v-7.74l1.14-7.02-1.14-6.96v-7.08h6.6V731h-6.6Zm18.305 0v-40.8h6.6V731h-6.6Zm-6.9-22.8v-6h20.4v6h-20.4Zm37.755 23.4c-2.88 0-5.48-.64-7.8-1.92-2.28-1.32-4.1-3.12-5.46-5.4-1.32-2.28-1.98-4.84-1.98-7.68s.66-5.38 1.98-7.62c1.32-2.28 3.1-4.08 5.34-5.4 2.28-1.32 4.8-1.98 7.56-1.98 2.68 0 5.04.62 7.08 1.86 2.08 1.24 3.7 2.94 4.86 5.1 1.2 2.16 1.8 4.62 1.8 7.38 0 .48-.04.98-.12 1.5-.04.48-.12 1.02-.24 1.62h-23.64v-5.4h20.22l-2.46 2.16c-.08-1.76-.42-3.24-1.02-4.44-.6-1.2-1.46-2.12-2.58-2.76-1.08-.64-2.42-.96-4.02-.96-1.68 0-3.14.36-4.38 1.08-1.24.72-2.2 1.74-2.88 3.06-.68 1.28-1.02 2.82-1.02 4.62 0 1.8.36 3.38 1.08 4.74a7.811 7.811 0 0 0 3.06 3.18c1.32.72 2.84 1.08 4.56 1.08 1.48 0 2.84-.26 4.08-.78a8.518 8.518 0 0 0 3.24-2.28l4.2 4.26c-1.4 1.64-3.1 2.88-5.1 3.72-2 .84-4.12 1.26-6.36 1.26Zm30.731 0c-2.6 0-4.96-.66-7.08-1.98-2.08-1.32-3.74-3.1-4.98-5.34-1.2-2.28-1.8-4.82-1.8-7.62 0-2.84.6-5.38 1.8-7.62 1.24-2.28 2.9-4.08 4.98-5.4 2.12-1.36 4.48-2.04 7.08-2.04 2.2 0 4.14.48 5.82 1.44 1.72.92 3.08 2.2 4.08 3.84 1 1.64 1.5 3.5 1.5 5.58v8.28c0 2.08-.5 3.94-1.5 5.58-.96 1.64-2.3 2.94-4.02 3.9-1.72.92-3.68 1.38-5.88 1.38Zm1.08-6.24c1.64 0 3.06-.36 4.26-1.08 1.24-.76 2.2-1.8 2.88-3.12.68-1.32 1.02-2.84 1.02-4.56 0-1.72-.34-3.24-1.02-4.56-.68-1.32-1.64-2.34-2.88-3.06-1.2-.76-2.62-1.14-4.26-1.14-1.6 0-3.02.38-4.26 1.14-1.2.72-2.16 1.74-2.88 3.06-.68 1.32-1.02 2.84-1.02 4.56 0 1.72.34 3.24 1.02 4.56.72 1.32 1.68 2.36 2.88 3.12 1.24.72 2.66 1.08 4.26 1.08Zm14.34 5.64h-6.6v-7.74l1.14-7.02-1.14-6.96V687.8h6.6V731Zm31.036 0-13.8-42h6.78l10.38 32.34h-1.8l10.14-32.34h4.8l10.14 32.34h-1.8l10.38-32.34h6.78l-13.8 42h-4.8l-10.2-32.28h1.8l-10.2 32.28h-4.8Zm56.407.6c-2.88 0-5.48-.64-7.8-1.92-2.28-1.32-4.1-3.12-5.46-5.4-1.32-2.28-1.98-4.84-1.98-7.68s.66-5.38 1.98-7.62c1.32-2.28 3.1-4.08 5.34-5.4 2.28-1.32 4.8-1.98 7.56-1.98 2.68 0 5.04.62 7.08 1.86 2.08 1.24 3.7 2.94 4.86 5.1 1.2 2.16 1.8 4.62 1.8 7.38 0 .48-.04.98-.12 1.5-.04.48-.12 1.02-.24 1.62h-23.64v-5.4h20.22l-2.46 2.16c-.08-1.76-.42-3.24-1.02-4.44-.6-1.2-1.46-2.12-2.58-2.76-1.08-.64-2.42-.96-4.02-.96-1.68 0-3.14.36-4.38 1.08-1.24.72-2.2 1.74-2.88 3.06-.68 1.28-1.02 2.82-1.02 4.62 0 1.8.36 3.38 1.08 4.74a7.811 7.811 0 0 0 3.06 3.18c1.32.72 2.84 1.08 4.56 1.08 1.48 0 2.84-.26 4.08-.78a8.518 8.518 0 0 0 3.24-2.28l4.2 4.26c-1.4 1.64-3.1 2.88-5.1 3.72-2 .84-4.12 1.26-6.36 1.26Zm30.731 0c-2.6 0-4.96-.66-7.08-1.98-2.08-1.32-3.74-3.1-4.98-5.34-1.2-2.28-1.8-4.82-1.8-7.62 0-2.84.6-5.38 1.8-7.62 1.24-2.28 2.9-4.08 4.98-5.4 2.12-1.36 4.48-2.04 7.08-2.04 2.2 0 4.14.48 5.82 1.44 1.72.92 3.08 2.2 4.08 3.84 1 1.64 1.5 3.5 1.5 5.58v8.28c0 2.08-.5 3.94-1.5 5.58-.96 1.64-2.3 2.94-4.02 3.9-1.72.92-3.68 1.38-5.88 1.38Zm1.08-6.24c2.44 0 4.4-.82 5.88-2.46 1.52-1.64 2.28-3.74 2.28-6.3 0-1.72-.34-3.24-1.02-4.56-.68-1.32-1.64-2.34-2.88-3.06-1.2-.76-2.62-1.14-4.26-1.14-1.6 0-3.02.38-4.26 1.14-1.2.72-2.16 1.74-2.88 3.06-.68 1.32-1.02 2.84-1.02 4.56 0 1.72.34 3.24 1.02 4.56.72 1.32 1.68 2.36 2.88 3.12 1.24.72 2.66 1.08 4.26 1.08Zm7.74 5.64v-7.74l1.14-7.02-1.14-6.96v-7.08h6.6V731h-6.6Zm18.3 0v-40.8h6.6V731h-6.6Zm-6.9-22.8v-6h20.4v6h-20.4Zm44.94 22.8v-16.62c0-1.92-.62-3.5-1.86-4.74-1.2-1.24-2.76-1.86-4.68-1.86-1.28 0-2.42.28-3.42.84-1 .56-1.78 1.34-2.34 2.34-.56 1-.84 2.14-.84 3.42l-2.58-1.44c0-2.2.48-4.14 1.44-5.82.96-1.72 2.28-3.06 3.96-4.02 1.72-1 3.64-1.5 5.76-1.5 2.16 0 4.08.48 5.76 1.44 1.68.96 3 2.3 3.96 4.02.96 1.68 1.44 3.64 1.44 5.88V731h-6.6Zm-19.74 0v-43.2h6.6V731h-6.6Zm46.43.6c-2.88 0-5.48-.64-7.8-1.92-2.28-1.32-4.1-3.12-5.46-5.4-1.32-2.28-1.98-4.84-1.98-7.68s.66-5.38 1.98-7.62c1.32-2.28 3.1-4.08 5.34-5.4 2.28-1.32 4.8-1.98 7.56-1.98 2.68 0 5.04.62 7.08 1.86 2.08 1.24 3.7 2.94 4.86 5.1 1.2 2.16 1.8 4.62 1.8 7.38 0 .48-.04.98-.12 1.5-.04.48-.12 1.02-.24 1.62h-23.64v-5.4h20.22l-2.46 2.16c-.08-1.76-.42-3.24-1.02-4.44-.6-1.2-1.46-2.12-2.58-2.76-1.08-.64-2.42-.96-4.02-.96-1.68 0-3.14.36-4.38 1.08-1.24.72-2.2 1.74-2.88 3.06-.68 1.28-1.02 2.82-1.02 4.62 0 1.8.36 3.38 1.08 4.74a7.811 7.811 0 0 0 3.06 3.18c1.32.72 2.84 1.08 4.56 1.08 1.48 0 2.84-.26 4.08-.78a8.518 8.518 0 0 0 3.24-2.28l4.2 4.26c-1.4 1.64-3.1 2.88-5.1 3.72-2 .84-4.12 1.26-6.36 1.26Zm18.67-.6v-28.8h6.6V731h-6.6Zm6.6-16.02-2.28-1.14c0-3.64.8-6.58 2.4-8.82 1.64-2.28 4.1-3.42 7.38-3.42 1.44 0 2.74.26 3.9.78 1.16.52 2.24 1.36 3.24 2.52l-4.32 4.44c-.52-.56-1.1-.96-1.74-1.2-.64-.24-1.38-.36-2.22-.36-1.84 0-3.36.58-4.56 1.74-1.2 1.16-1.8 2.98-1.8 5.46Zm31.8 16.02v-42h6.9v42h-6.9Zm28.35.6c-2.84 0-5.42-.66-7.74-1.98a14.573 14.573 0 0 1-5.4-5.4c-1.32-2.28-1.98-4.82-1.98-7.62 0-2.84.66-5.38 1.98-7.62 1.32-2.28 3.12-4.08 5.4-5.4 2.32-1.32 4.9-1.98 7.74-1.98 2.24 0 4.32.44 6.24 1.32 1.96.84 3.62 2.06 4.98 3.66l-4.32 4.38c-.84-1-1.86-1.74-3.06-2.22-1.16-.52-2.44-.78-3.84-.78-1.64 0-3.1.38-4.38 1.14a7.847 7.847 0 0 0-2.94 3c-.68 1.28-1.02 2.78-1.02 4.5 0 1.68.34 3.18 1.02 4.5.72 1.28 1.7 2.3 2.94 3.06 1.28.72 2.74 1.08 4.38 1.08 1.4 0 2.68-.24 3.84-.72 1.2-.52 2.22-1.28 3.06-2.28l4.32 4.38c-1.36 1.6-3.02 2.84-4.98 3.72-1.92.84-4 1.26-6.24 1.26Zm28.6 0c-2.8 0-5.34-.66-7.62-1.98a15.52 15.52 0 0 1-5.46-5.46c-1.32-2.28-1.98-4.82-1.98-7.62s.66-5.32 1.98-7.56c1.36-2.24 3.18-4.02 5.46-5.34 2.28-1.36 4.82-2.04 7.62-2.04 2.84 0 5.4.66 7.68 1.98 2.28 1.32 4.08 3.12 5.4 5.4 1.36 2.24 2.04 4.76 2.04 7.56s-.68 5.34-2.04 7.62c-1.32 2.28-3.12 4.1-5.4 5.46-2.28 1.32-4.84 1.98-7.68 1.98Zm0-6.36c1.64 0 3.08-.36 4.32-1.08 1.28-.76 2.26-1.8 2.94-3.12.72-1.32 1.08-2.82 1.08-4.5 0-1.68-.36-3.16-1.08-4.44a7.847 7.847 0 0 0-2.94-3c-1.24-.76-2.68-1.14-4.32-1.14-1.6 0-3.04.38-4.32 1.14a7.847 7.847 0 0 0-2.94 3c-.68 1.28-1.02 2.76-1.02 4.44 0 1.68.34 3.18 1.02 4.5.72 1.32 1.7 2.36 2.94 3.12 1.28.72 2.72 1.08 4.32 1.08Zm40.34 5.76v-16.62c0-1.92-.62-3.5-1.86-4.74-1.2-1.24-2.76-1.86-4.68-1.86-1.28 0-2.42.28-3.42.84-1 .56-1.78 1.34-2.34 2.34-.56 1-.84 2.14-.84 3.42l-2.58-1.44c0-2.2.48-4.14 1.44-5.82.96-1.72 2.28-3.06 3.96-4.02 1.72-1 3.64-1.5 5.76-1.5 2.16 0 4.08.56 5.76 1.68 1.68 1.08 3 2.5 3.96 4.26.96 1.72 1.44 3.52 1.44 5.4V731h-6.6Zm-19.74 0v-28.8h6.6V731h-6.6Zm42.47.6c-1.6 0-3.14-.2-4.62-.6-1.48-.44-2.84-1.04-4.08-1.8a13.95 13.95 0 0 1-3.24-2.88l4.2-4.2c1 1.16 2.14 2.04 3.42 2.64 1.32.56 2.8.84 4.44.84 1.48 0 2.6-.22 3.36-.66.76-.44 1.14-1.08 1.14-1.92 0-.88-.36-1.56-1.08-2.04-.72-.48-1.66-.88-2.82-1.2-1.12-.36-2.32-.72-3.6-1.08a19.89 19.89 0 0 1-3.6-1.44 8.114 8.114 0 0 1-2.76-2.58c-.72-1.08-1.08-2.48-1.08-4.2 0-1.84.42-3.42 1.26-4.74.88-1.32 2.1-2.34 3.66-3.06 1.6-.72 3.5-1.08 5.7-1.08 2.32 0 4.36.42 6.12 1.26 1.8.8 3.3 2.02 4.5 3.66l-4.2 4.2c-.84-1.04-1.8-1.82-2.88-2.34-1.08-.52-2.32-.78-3.72-.78-1.32 0-2.34.2-3.06.6-.72.4-1.08.98-1.08 1.74 0 .8.36 1.42 1.08 1.86.72.44 1.64.82 2.76 1.14 1.16.32 2.36.68 3.6 1.08 1.28.36 2.48.88 3.6 1.56 1.16.64 2.1 1.52 2.82 2.64.72 1.08 1.08 2.5 1.08 4.26 0 2.8-.98 5.02-2.94 6.66-1.96 1.64-4.62 2.46-7.98 2.46Z"/><path fill="#93C5FD" d="M790.467 1051.42c-1.54 0-2.912-.32-4.116-.97a7.614 7.614 0 0 1-2.856-2.73c-.672-1.14-1.008-2.45-1.008-3.9v-5.8c0-1.45.35-2.76 1.05-3.9a7.292 7.292 0 0 1 2.856-2.69c1.204-.67 2.562-1.01 4.074-1.01 1.82 0 3.458.48 4.914 1.43 1.484.92 2.646 2.18 3.486 3.78.868 1.57 1.302 3.34 1.302 5.33 0 1.96-.434 3.74-1.302 5.34-.84 1.56-2.002 2.81-3.486 3.73-1.456.93-3.094 1.39-4.914 1.39Zm-.756-4.37c1.12 0 2.1-.25 2.94-.75a5.449 5.449 0 0 0 2.016-2.19c.504-.92.756-1.99.756-3.19s-.252-2.27-.756-3.19a5.074 5.074 0 0 0-2.016-2.14c-.84-.54-1.82-.8-2.94-.8-1.12 0-2.114.26-2.982.8-.868.5-1.54 1.21-2.016 2.14-.476.92-.714 1.99-.714 3.19s.238 2.27.714 3.19a5.449 5.449 0 0 0 2.016 2.19c.868.5 1.862.75 2.982.75Zm-10.038 3.95v-30.24h4.62v15.04l-.798 4.87.798 4.91v5.42h-4.62Zm32.806.42c-1.82 0-3.472-.46-4.956-1.39-1.456-.92-2.618-2.17-3.486-3.73-.84-1.6-1.26-3.38-1.26-5.34 0-1.99.42-3.76 1.26-5.33.868-1.6 2.03-2.86 3.486-3.78 1.484-.95 3.136-1.43 4.956-1.43 1.54 0 2.898.34 4.074 1.01a7.292 7.292 0 0 1 2.856 2.69c.7 1.14 1.05 2.45 1.05 3.9v5.8c0 1.45-.35 2.76-1.05 3.9-.672 1.15-1.61 2.06-2.814 2.73-1.204.65-2.576.97-4.116.97Zm.756-4.37c1.708 0 3.08-.57 4.116-1.72 1.064-1.15 1.596-2.62 1.596-4.41 0-1.2-.238-2.27-.714-3.19a5.074 5.074 0 0 0-2.016-2.14c-.84-.54-1.834-.8-2.982-.8-1.12 0-2.114.26-2.982.8-.84.5-1.512 1.21-2.016 2.14-.476.92-.714 1.99-.714 3.19s.238 2.27.714 3.19a5.87 5.87 0 0 0 2.016 2.19c.868.5 1.862.75 2.982.75Zm5.418 3.95v-5.42l.798-4.91-.798-4.87v-4.96h4.62V1051h-4.62Zm16.341.42c-1.12 0-2.198-.14-3.234-.42a12.118 12.118 0 0 1-2.856-1.26 9.647 9.647 0 0 1-2.268-2.02l2.94-2.94c.7.82 1.498 1.43 2.394 1.85.924.39 1.96.59 3.108.59 1.036 0 1.82-.15 2.352-.46.532-.31.798-.76.798-1.35 0-.61-.252-1.09-.756-1.42-.504-.34-1.162-.62-1.974-.84-.784-.26-1.624-.51-2.52-.76-.868-.25-1.708-.59-2.52-1.01a5.74 5.74 0 0 1-1.932-1.8c-.504-.76-.756-1.74-.756-2.94 0-1.29.294-2.4.882-3.32.616-.93 1.47-1.64 2.562-2.14 1.12-.51 2.45-.76 3.99-.76 1.624 0 3.052.29 4.284.88 1.26.56 2.31 1.42 3.15 2.56l-2.94 2.94c-.588-.72-1.26-1.27-2.016-1.63-.756-.37-1.624-.55-2.604-.55-.924 0-1.638.14-2.142.42-.504.28-.756.69-.756 1.22 0 .56.252.99.756 1.3.504.31 1.148.57 1.932.8.812.22 1.652.47 2.52.75.896.26 1.736.62 2.52 1.1.812.44 1.47 1.06 1.974 1.84.504.76.756 1.75.756 2.99 0 1.96-.686 3.51-2.058 4.66-1.372 1.15-3.234 1.72-5.586 1.72Zm14.981 0c-.896 0-1.638-.29-2.226-.88-.56-.62-.84-1.36-.84-2.23 0-.89.28-1.64.84-2.22.588-.59 1.33-.89 2.226-.89.896 0 1.624.3 2.184.89.588.58.882 1.33.882 2.22 0 .87-.294 1.61-.882 2.23-.56.59-1.288.88-2.184.88Zm16.398 0c-1.82 0-3.472-.46-4.956-1.39-1.456-.92-2.618-2.17-3.486-3.73-.84-1.6-1.26-3.38-1.26-5.34 0-1.99.42-3.76 1.26-5.33.868-1.6 2.03-2.86 3.486-3.78 1.484-.95 3.136-1.43 4.956-1.43 1.54 0 2.898.34 4.074 1.01a7.292 7.292 0 0 1 2.856 2.69c.7 1.14 1.05 2.45 1.05 3.9v5.8c0 1.45-.35 2.76-1.05 3.9-.672 1.15-1.61 2.06-2.814 2.73-1.204.65-2.576.97-4.116.97Zm.756-4.37c1.148 0 2.142-.25 2.982-.75a5.449 5.449 0 0 0 2.016-2.19c.476-.92.714-1.99.714-3.19s-.238-2.27-.714-3.19a5.074 5.074 0 0 0-2.016-2.14c-.84-.54-1.834-.8-2.982-.8-1.12 0-2.114.26-2.982.8-.84.5-1.512 1.21-2.016 2.14-.476.92-.714 1.99-.714 3.19s.238 2.27.714 3.19a5.87 5.87 0 0 0 2.016 2.19c.868.5 1.862.75 2.982.75Zm10.038 3.95h-4.62v-5.42l.798-4.91-.798-4.87v-15.04h4.62V1051Zm14.493.42c-2.016 0-3.836-.45-5.46-1.34a10.618 10.618 0 0 1-3.822-3.78c-.924-1.6-1.386-3.39-1.386-5.38 0-1.99.462-3.77 1.386-5.33a10.24 10.24 0 0 1 3.738-3.78c1.596-.93 3.36-1.39 5.292-1.39 1.876 0 3.528.43 4.956 1.3a9.1 9.1 0 0 1 3.402 3.57c.84 1.51 1.26 3.24 1.26 5.17 0 .33-.028.68-.084 1.05-.028.33-.084.71-.168 1.13h-16.548v-3.78h14.154l-1.722 1.51c-.056-1.23-.294-2.26-.714-3.1-.42-.84-1.022-1.49-1.806-1.94-.756-.44-1.694-.67-2.814-.67-1.176 0-2.198.25-3.066.76-.868.5-1.54 1.22-2.016 2.14-.476.9-.714 1.97-.714 3.23s.252 2.37.756 3.32c.504.95 1.218 1.7 2.142 2.23.924.5 1.988.75 3.192.75 1.036 0 1.988-.18 2.856-.54.896-.37 1.652-.9 2.268-1.6l2.94 2.98a9.445 9.445 0 0 1-3.57 2.61c-1.4.59-2.884.88-4.452.88Zm19.546-.42-9.198-20.16h5.124l7.014 16.42h-3.024l7.056-16.42h4.914l-9.198 20.16h-2.688Zm12.422 1.68 11.76-32.76h4.326l-11.76 32.76h-4.326Zm17.442-1.68v-20.16h4.62V1051h-4.62Zm13.398 0v-12.01c0-1.35-.42-2.38-1.26-3.11-.84-.76-1.876-1.13-3.108-1.13-.84 0-1.596.16-2.268.5-.644.34-1.162.83-1.554 1.47-.392.62-.588 1.37-.588 2.27l-1.806-1.01c0-1.54.336-2.87 1.008-3.99a6.922 6.922 0 0 1 2.73-2.6c1.148-.65 2.436-.97 3.864-.97s2.716.31 3.864.92a7.017 7.017 0 0 1 2.73 2.61c.672 1.12 1.008 2.46 1.008 4.03V1051h-4.62Zm13.398 0v-12.01c0-1.35-.42-2.38-1.26-3.11-.84-.76-1.876-1.13-3.108-1.13-.812 0-1.554.16-2.226.5-.672.34-1.204.83-1.596 1.47-.392.62-.588 1.37-.588 2.27l-2.604-1.01c.14-1.54.588-2.87 1.344-3.99a7.778 7.778 0 0 1 2.898-2.6c1.204-.65 2.52-.97 3.948-.97 1.456 0 2.772.31 3.948.92a7.243 7.243 0 0 1 2.814 2.61c.7 1.12 1.05 2.46 1.05 4.03V1051h-4.62Zm18.746.42c-2.016 0-3.836-.45-5.46-1.34a10.618 10.618 0 0 1-3.822-3.78c-.924-1.6-1.386-3.39-1.386-5.38 0-1.99.462-3.77 1.386-5.33a10.24 10.24 0 0 1 3.738-3.78c1.596-.93 3.36-1.39 5.292-1.39 1.876 0 3.528.43 4.956 1.3a9.1 9.1 0 0 1 3.402 3.57c.84 1.51 1.26 3.24 1.26 5.17 0 .33-.028.68-.084 1.05-.028.33-.084.71-.168 1.13h-16.548v-3.78h14.154l-1.722 1.51c-.056-1.23-.294-2.26-.714-3.1-.42-.84-1.022-1.49-1.806-1.94-.756-.44-1.694-.67-2.814-.67-1.176 0-2.198.25-3.066.76-.868.5-1.54 1.22-2.016 2.14-.476.9-.714 1.97-.714 3.23s.252 2.37.756 3.32c.504.95 1.218 1.7 2.142 2.23.924.5 1.988.75 3.192.75 1.036 0 1.988-.18 2.856-.54.896-.37 1.652-.9 2.268-1.6l2.94 2.98a9.445 9.445 0 0 1-3.57 2.61c-1.4.59-2.884.88-4.452.88Zm15.598-.42v-28.56h4.62V1051h-4.62Zm-4.826-15.96v-4.2h14.276v4.2h-14.276Zm26.426 16.38c-2.01 0-3.83-.45-5.46-1.34-1.59-.93-2.87-2.19-3.82-3.78-.92-1.6-1.39-3.39-1.39-5.38 0-1.99.47-3.77 1.39-5.33a10.2 10.2 0 0 1 3.74-3.78c1.59-.93 3.36-1.39 5.29-1.39 1.88 0 3.53.43 4.96 1.3 1.45.87 2.59 2.06 3.4 3.57.84 1.51 1.26 3.24 1.26 5.17 0 .33-.03.68-.09 1.05-.02.33-.08.71-.16 1.13h-16.55v-3.78h14.15l-1.72 1.51c-.06-1.23-.29-2.26-.71-3.1a4.532 4.532 0 0 0-1.81-1.94c-.76-.44-1.69-.67-2.81-.67-1.18 0-2.2.25-3.07.76-.87.5-1.54 1.22-2.02 2.14-.47.9-.71 1.97-.71 3.23s.25 2.37.76 3.32c.5.95 1.21 1.7 2.14 2.23.92.5 1.99.75 3.19.75 1.04 0 1.99-.18 2.86-.54.89-.37 1.65-.9 2.26-1.6l2.94 2.98a9.445 9.445 0 0 1-3.57 2.61c-1.4.59-2.88.88-4.45.88Zm22.31 0c-1.96 0-3.74-.46-5.33-1.39-1.6-.95-2.87-2.22-3.82-3.82-.93-1.59-1.39-3.37-1.39-5.33s.46-3.73 1.39-5.29c.95-1.57 2.22-2.82 3.82-3.74 1.59-.95 3.37-1.43 5.33-1.43 1.99 0 3.78.46 5.38 1.39 1.59.92 2.85 2.18 3.78 3.78.95 1.56 1.43 3.33 1.43 5.29s-.48 3.74-1.43 5.33c-.93 1.6-2.19 2.87-3.78 3.82-1.6.93-3.39 1.39-5.38 1.39Zm0-4.45c1.15 0 2.16-.25 3.03-.76.89-.53 1.58-1.26 2.05-2.18.51-.93.76-1.98.76-3.15 0-1.18-.25-2.21-.76-3.11-.5-.9-1.19-1.6-2.05-2.1-.87-.53-1.88-.8-3.03-.8-1.12 0-2.13.27-3.02.8-.87.5-1.56 1.2-2.06 2.1-.48.9-.71 1.93-.71 3.11 0 1.17.23 2.22.71 3.15.5.92 1.19 1.65 2.06 2.18.89.51 1.9.76 3.02.76Zm23.71 4.45c-1.99 0-3.79-.46-5.42-1.39a10.23 10.23 0 0 1-3.78-3.78c-.92-1.59-1.38-3.37-1.38-5.33 0-1.99.46-3.77 1.38-5.33.93-1.6 2.19-2.86 3.78-3.78 1.63-.93 3.43-1.39 5.42-1.39 1.57 0 3.02.31 4.37.92 1.37.59 2.53 1.45 3.48 2.57l-3.02 3.06c-.59-.7-1.3-1.22-2.14-1.55-.81-.37-1.71-.55-2.69-.55-1.15 0-2.17.27-3.07.8-.86.5-1.55 1.2-2.05 2.1-.48.9-.72 1.95-.72 3.15 0 1.18.24 2.23.72 3.15.5.9 1.19 1.61 2.05 2.14.9.51 1.92.76 3.07.76.98 0 1.88-.17 2.69-.51.84-.36 1.55-.89 2.14-1.59l3.02 3.06a9.796 9.796 0 0 1-3.48 2.61c-1.35.59-2.8.88-4.37.88Zm20.01 0c-1.96 0-3.73-.46-5.33-1.39-1.6-.95-2.87-2.22-3.82-3.82-.93-1.59-1.39-3.37-1.39-5.33s.46-3.73 1.39-5.29c.95-1.57 2.22-2.82 3.82-3.74 1.6-.95 3.37-1.43 5.33-1.43 1.99 0 3.78.46 5.38 1.39 1.6.92 2.86 2.18 3.78 3.78.95 1.56 1.43 3.33 1.43 5.29s-.48 3.74-1.43 5.33c-.92 1.6-2.18 2.87-3.78 3.82-1.6.93-3.39 1.39-5.38 1.39Zm0-4.45c1.15 0 2.16-.25 3.03-.76.89-.53 1.58-1.26 2.06-2.18.5-.93.75-1.98.75-3.15 0-1.18-.25-2.21-.75-3.11-.51-.9-1.19-1.6-2.06-2.1-.87-.53-1.88-.8-3.03-.8-1.12 0-2.12.27-3.02.8-.87.5-1.55 1.2-2.06 2.1-.47.9-.71 1.93-.71 3.11 0 1.17.24 2.22.71 3.15.51.92 1.19 1.65 2.06 2.18.9.51 1.9.76 3.02.76Zm28.25 4.03v-11.63c0-1.35-.44-2.45-1.3-3.32-.84-.87-1.94-1.3-3.28-1.3-.9 0-1.69.19-2.39.58-.7.4-1.25.94-1.64 1.64-.39.7-.59 1.5-.59 2.4l-1.81-1.01c0-1.54.34-2.9 1.01-4.08.67-1.2 1.6-2.14 2.77-2.81 1.21-.7 2.55-1.05 4.04-1.05 1.51 0 2.85.39 4.03 1.18 1.17.75 2.1 1.75 2.77 2.98.67 1.2 1.01 2.46 1.01 3.78V1051h-4.62Zm-13.82 0v-20.16h4.62V1051h-4.62Zm29.73.42c-1.12 0-2.2-.14-3.24-.42a12.22 12.22 0 0 1-2.85-1.26 9.539 9.539 0 0 1-2.27-2.02l2.94-2.94c.7.82 1.5 1.43 2.39 1.85.93.39 1.96.59 3.11.59 1.04 0 1.82-.15 2.35-.46.54-.31.8-.76.8-1.35 0-.61-.25-1.09-.75-1.42-.51-.34-1.17-.62-1.98-.84-.78-.26-1.62-.51-2.52-.76-.87-.25-1.71-.59-2.52-1.01a5.734 5.734 0 0 1-1.93-1.8c-.5-.76-.76-1.74-.76-2.94 0-1.29.3-2.4.89-3.32.61-.93 1.47-1.64 2.56-2.14 1.12-.51 2.45-.76 3.99-.76 1.62 0 3.05.29 4.28.88 1.26.56 2.31 1.42 3.15 2.56l-2.94 2.94c-.59-.72-1.26-1.27-2.01-1.63-.76-.37-1.63-.55-2.61-.55-.92 0-1.64.14-2.14.42-.5.28-.76.69-.76 1.22 0 .56.26.99.76 1.3.5.31 1.15.57 1.93.8.81.22 1.65.47 2.52.75.9.26 1.74.62 2.52 1.1.81.44 1.47 1.06 1.98 1.84.5.76.75 1.75.75 2.99 0 1.96-.68 3.51-2.06 4.66-1.37 1.15-3.23 1.72-5.58 1.72Z"/></g><rect width="1914" height="1146" x="3" y="3" stroke="#F0F9FF" stroke-width="6" rx="27"/><defs><linearGradient id="b" x1="960" x2="960" y1="0" y2="1152" gradientUnits="userSpaceOnUse"><stop stop-color="#fff"/><stop offset="1" stop-color="#F0F9FF"/></linearGradient><linearGradient id="c" x1="384" x2="384" y1="324" y2="444" gradientUnits="userSpaceOnUse"><stop stop-color="#FBBF24"/><stop offset="1" stop-color="#F8AF18"/></linearGradient><linearGradient id="d" x1="480" x2="480" y1="768" y2="960" gradientUnits="userSpaceOnUse"><stop stop-color="#86C3DB"/><stop offset="1" stop-color="#72B9D5"/></linearGradient><linearGradient id="f" x1="1728" x2="1728" y1="112" y2="272" gradientUnits="userSpaceOnUse"><stop stop-color="#334155"/><stop offset="1" stop-color="#1E293B"/></linearGradient><linearGradient id="i" x1="1704" x2="1704" y1="611.044" y2="683" gradientUnits="userSpaceOnUse"><stop stop-color="#B0BCCD"/><stop offset="1" stop-color="#94A3B8"/></linearGradient><linearGradient id="j" x1="1632" x2="1632" y1="596.103" y2="746" gradientUnits="userSpaceOnUse"><stop stop-color="#F3F7FE"/><stop offset="1" stop-color="#E6EFFC"/></linearGradient><clipPath id="a"><rect width="1920" height="1152" fill="#fff" rx="30"/></clipPath><clipPath id="e"><path fill="#fff" d="M1648 112h160v160h-160z"/></clipPath><clipPath id="g"><path fill="#fff" d="m1751.33 148.867 19.799 19.799-66.468 66.468-19.799-19.799z"/></clipPath><filter id="h" width="66.547" height="68.547" x="1696.14" y="157.312" color-interpolation-filters="sRGB" filterUnits="userSpaceOnUse"><feFlood flood-opacity="0" result="BackgroundImageFix"/><feColorMatrix in="SourceAlpha" result="hardAlpha" values="0 0 0 0 0 0 0 0 0 0 0 0 0 0 0 0 0 0 127 0"/><feOffset dy="2"/><feComposite in2="hardAlpha" operator="out"/><feColorMatrix values="0 0 0 0 0.117647 0 0 0 0 0.160784 0 0 0 0 0.231373 0 0 0 1 0"/><feBlend in2="BackgroundImageFix" result="effect1_dropShadow_1837_7980"/><feBlend in="SourceGraphic" in2="effect1_dropShadow_1837_7980" result="shape"/></filter></defs></svg>
